{
    "asset" : {
        "generator" : "Khronos glTF Blender I/O v1.2.75",
        "version" : "2.0"
    },
    "scene" : 0,
    "scenes" : [
        {
            "name" : "Scene",
            "nodes" : [
                0,
                1,
                2,
                3,
                4
            ]
        }
    ],
    "nodes" : [
        {
            "mesh" : 0,
            "name" : "High Poly Gun"
        },
        {
            "name" : "Light",
            "rotation" : [
                0.16907575726509094,
                0.7558803558349609,
                -0.27217137813568115,
                0.570947527885437
            ],
            "translation" : [
                4.076245307922363,
                5.903861999511719,
                -1.0054539442062378
            ]
        },
        {
            "name" : "Camera",
            "rotation" : [
                0.483536034822464,
                0.33687159419059753,
                -0.20870360732078552,
                0.7804827094078064
            ],
            "translation" : [
                7.358891487121582,
                4.958309173583984,
                6.925790786743164
            ]
        },
        {
            "name" : "Light.001",
            "rotation" : [
                0.16907575726509094,
                0.7558803558349609,
                -0.27217137813568115,
                0.570947527885437
            ],
            "translation" : [
                3.501195192337036,
                7.721397399902344,
                -1.0677399635314941
            ]
        },
        {
            "mesh" : 1,
            "name" : " Low Poly Gun"
        }
    ],
    "materials" : [
        {
            "doubleSided" : true,
            "emissiveFactor" : [
                0,
                0,
                0
            ],
            "name" : "Material",
            "normalTexture" : {
                "index" : 0,
                "texCoord" : 0
            },
            "pbrMetallicRoughness" : {
                "baseColorTexture" : {
                    "index" : 1,
                    "texCoord" : 0
                },
                "metallicFactor" : 0,
                "roughnessFactor" : 0.4000000059604645
            }
        }
    ],
    "meshes" : [
        {
            "name" : "Cube",
            "primitives" : [
                {
                    "attributes" : {
                        "POSITION" : 0,
                        "NORMAL" : 1,
                        "TEXCOORD_0" : 2
                    },
                    "indices" : 3,
                    "material" : 0
                }
            ]
        },
        {
            "name" : "Cube.001",
            "primitives" : [
                {
                    "attributes" : {
                        "POSITION" : 4,
                        "NORMAL" : 5,
                        "TEXCOORD_0" : 6
                    },
                    "indices" : 7,
                    "material" : 0
                }
            ]
        }
    ],
    "textures" : [
        {
            "source" : 0
        },
        {
            "source" : 1
        }
    ],
    "images" : [
        {
            "bufferView" : 4,
            "mimeType" : "image/png",
            "name" : "WeaponNormals"
        },
        {
            "bufferView" : 5,
            "mimeType" : "image/png",
            "name" : "WeaponAlbedoMap"
        }
    ],
    "accessors" : [
        {
            "bufferView" : 0,
            "componentType" : 5126,
            "count" : 2609,
            "max" : [
                0.14460188150405884,
                0.46704375743865967,
                2.627427577972412
            ],
            "min" : [
                -0.14630044996738434,
                -0.8149141669273376,
                -2.350767135620117
            ],
            "type" : "VEC3"
        },
        {
            "bufferView" : 1,
            "componentType" : 5126,
            "count" : 2609,
            "type" : "VEC3"
        },
        {
            "bufferView" : 2,
            "componentType" : 5126,
            "count" : 2609,
            "type" : "VEC2"
        },
        {
            "bufferView" : 3,
            "componentType" : 5123,
            "count" : 5196,
            "type" : "SCALAR"
        },
        {
            "bufferView" : 6,
            "componentType" : 5126,
            "count" : 1347,
            "max" : [
                0.14460188150405884,
                0.46704375743865967,
                2.627427577972412
            ],
            "min" : [
                -0.14630044996738434,
                -0.8149141669273376,
                -2.350767135620117
            ],
            "type" : "VEC3"
        },
        {
            "bufferView" : 7,
            "componentType" : 5126,
            "count" : 1347,
            "type" : "VEC3"
        },
        {
            "bufferView" : 8,
            "componentType" : 5126,
            "count" : 1347,
            "type" : "VEC2"
        },
        {
            "bufferView" : 9,
            "componentType" : 5123,
            "count" : 2700,
            "type" : "SCALAR"
        }
    ],
    "bufferViews" : [
        {
            "buffer" : 0,
            "byteLength" : 31308,
            "byteOffset" : 0
        },
        {
            "buffer" : 0,
            "byteLength" : 31308,
            "byteOffset" : 31308
        },
        {
            "buffer" : 0,
            "byteLength" : 20872,
            "byteOffset" : 62616
        },
        {
            "buffer" : 0,
            "byteLength" : 10392,
            "byteOffset" : 83488
        },
        {
            "buffer" : 0,
            "byteLength" : 310983,
            "byteOffset" : 93880
        },
        {
            "buffer" : 0,
            "byteLength" : 829563,
            "byteOffset" : 404864
        },
        {
            "buffer" : 0,
            "byteLength" : 16164,
            "byteOffset" : 1234428
        },
        {
            "buffer" : 0,
            "byteLength" : 16164,
            "byteOffset" : 1250592
        },
        {
            "buffer" : 0,
            "byteLength" : 10776,
            "byteOffset" : 1266756
        },
        {
            "buffer" : 0,
            "byteLength" : 5400,
            "byteOffset" : 1277532
        }
    ],
    "buffers" : [
        {
            "byteLength" : 1282932,
            "uri" : "data:application/octet-stream;base64,"
        }
    ]
}
