{
    "asset" : {
        "generator" : "Khronos glTF Blender I/O v1.2.75",
        "version" : "2.0"
    },
    "scene" : 0,
    "scenes" : [
        {
            "name" : "Scene",
            "nodes" : [
                0
            ]
        }
    ],
    "nodes" : [
        {
            "mesh" : 0,
            "name" : "Low_Poly",
            "translation" : [
                0,
                -0.027218015864491463,
                -0.027217864990234375
            ]
        }
    ],
    "materials" : [
        {
            "doubleSided" : true,
            "emissiveFactor" : [
                0,
                0,
                0
            ],
            "name" : "LOW",
            "pbrMetallicRoughness" : {
                "baseColorTexture" : {
                    "index" : 0,
                    "texCoord" : 0
                },
                "metallicFactor" : 0,
                "roughnessFactor" : 0.5654545426368713
            }
        }
    ],
    "meshes" : [
        {
            "name" : "Plane.001",
            "primitives" : [
                {
                    "attributes" : {
                        "POSITION" : 0,
                        "NORMAL" : 1,
                        "TEXCOORD_0" : 2,
                        "COLOR_0" : 3
                    },
                    "indices" : 4,
                    "material" : 0
                }
            ]
        }
    ],
    "textures" : [
        {
            "source" : 0
        }
    ],
    "images" : [
        {
            "bufferView" : 5,
            "mimeType" : "image/png",
            "name" : "HPVertexColour"
        }
    ],
    "accessors" : [
        {
            "bufferView" : 0,
            "componentType" : 5126,
            "count" : 3382,
            "max" : [
                1.353801965713501,
                3.2920079231262207,
                1.5462204217910767
            ],
            "min" : [
                -0.8932976126670837,
                -0.053144875913858414,
                -1.153712272644043
            ],
            "type" : "VEC3"
        },
        {
            "bufferView" : 1,
            "componentType" : 5126,
            "count" : 3382,
            "type" : "VEC3"
        },
        {
            "bufferView" : 2,
            "componentType" : 5126,
            "count" : 3382,
            "type" : "VEC2"
        },
        {
            "bufferView" : 3,
            "componentType" : 5126,
            "count" : 3382,
            "type" : "VEC4"
        },
        {
            "bufferView" : 4,
            "componentType" : 5123,
            "count" : 3384,
            "type" : "SCALAR"
        }
    ],
    "bufferViews" : [
        {
            "buffer" : 0,
            "byteLength" : 40584,
            "byteOffset" : 0
        },
        {
            "buffer" : 0,
            "byteLength" : 40584,
            "byteOffset" : 40584
        },
        {
            "buffer" : 0,
            "byteLength" : 27056,
            "byteOffset" : 81168
        },
        {
            "buffer" : 0,
            "byteLength" : 54112,
            "byteOffset" : 108224
        },
        {
            "buffer" : 0,
            "byteLength" : 6768,
            "byteOffset" : 162336
        },
        {
            "buffer" : 0,
            "byteLength" : 91687,
            "byteOffset" : 169104
        }
    ],
    "buffers" : [
        {
            "byteLength" : 260792,
            "uri" : "data:application/octet-stream;base64,"
        }
    ]
}
